<?xml version="1.0" standalone="no"?><!DOCTYPE svg PUBLIC "-//W3C//DTD SVG 1.1//EN" "http://www.w3.org/Graphics/SVG/1.1/DTD/svg11.dtd"><svg t="1586612189107" class="icon" viewBox="0 0 1024 1024" version="1.1" xmlns="http://www.w3.org/2000/svg" p-id="3866" xmlns:xlink="http://www.w3.org/1999/xlink" width="200" height="200"><defs><style type="text/css"></style></defs><path d="M741.632 682.798545l-0.069818 0.069819-102.516364 122.158545-16.360727 1.442909-1.442909-16.384 267.426909-318.743273 17.850182 14.964364-164.887273 196.491636zM884.363636 781.405091V907.636364H93.090909v-126.231273l290.443636-98.257455a34.909091 34.909091 0 0 0 23.738182-33.070545v-82.594909c0-10.053818-4.352-19.618909-11.892363-26.251637-60.532364-53.085091-104.471273-148.573091-104.471273-227.048727C290.909091 205.125818 379.648 116.363636 488.727273 116.363636c109.056 0 197.818182 88.762182 197.818182 197.818182 0 78.475636-43.938909 173.963636-104.471273 227.048727a34.909091 34.909091 0 0 0-11.892364 26.251637v82.594909a34.909091 34.909091 0 0 0 23.714909 33.070545l20.200728 6.842182-64.954182 77.381818 10.030545 114.734546 114.804364-10.007273 105.797818-126.091636L884.363636 781.405091z m96.488728-301.684364a57.553455 57.553455 0 0 0-20.549819-39.400727l-35.700363-29.975273a58.228364 58.228364 0 0 0-81.92 7.214546l-180.410182 215.016727-22.272-7.540364v-42.333091c69.12-67.421091 116.363636-175.406545 116.363636-268.520727C756.363636 166.609455 636.299636 46.545455 488.727273 46.545455S221.090909 166.609455 221.090909 314.181818c0 93.114182 47.243636 201.099636 116.363636 268.520727v42.333091L62.859636 717.940364A58.112 58.112 0 0 0 23.272727 773.073455V919.272727C23.272727 951.365818 49.361455 977.454545 81.454545 977.454545h814.545455c32.093091 0 58.181818-26.088727 58.181818-58.181818v-146.199272a58.135273 58.135273 0 0 0-39.540363-55.109819l-86.737455-29.346909 139.589818-166.353454a57.716364 57.716364 0 0 0 13.358546-42.542546z" fill="#797979" p-id="3867"></path></svg>